# xmcd CD database file
#
# Track frame offsets:
#	150
#	23663
#	44551
#	74064
#
# Disc length: 1528 seconds
#
# Revision: 0
# Processed by: cddbd v1.5.1PL2 Copyright (c) Steve Scherf et al.
# Submitted via: CDex 1.51
#
DISCID=3505f604
DTITLE=上原奈美 - 15 Carat
DYEAR=2006
DGENRE=JPop
TTITLE0=15 Carat
TTITLE1=maybe...
TTITLE2=Real Me -jazzy desert mix-
TTITLE3=「15 Carat」 Video Clip
EXTD=YEAR: 2006
EXTT0=
EXTT1=
EXTT2=
EXTT3=
PLAYORDER=
